<svg width="48" height="48" viewBox="0 0 48 48" fill="none" xmlns="http://www.w3.org/2000/svg">
<g clip-path="url(#clip0_30_184)">
<path d="M23.9905 27.2813C24.5089 27.2813 24.9298 26.8612 24.9298 26.3438C24.9298 25.8263 24.5089 25.4062 23.9905 25.4062C23.472 25.4062 23.0511 25.8263 23.0511 26.3438C23.0511 26.8612 23.472 27.2813 23.9905 27.2813Z" fill="#17696A"/>
<path d="M23.454 47.7316C23.6173 47.8481 23.8085 47.9063 24 47.9063C24.1915 47.9063 24.3827 47.8481 24.546 47.7316C34.1166 40.9088 43.726 37.915 43.726 23.8762V6.49583C43.726 6.00841 43.3514 5.60228 42.8648 5.56163L40.4233 5.35801C34.8258 4.89256 29.319 3.05637 24.4979 0.0486758C24.1934 -0.141388 23.8066 -0.141388 23.5021 0.0486758C18.6806 3.05637 13.1738 4.89256 7.57632 5.35838L5.13515 5.56163C4.64824 5.60228 4.27397 6.00841 4.27397 6.49583V23.8762C4.27397 38.3108 15.233 41.8708 23.454 47.7316V47.7316ZM6.15264 7.35826L7.73263 7.22679C13.4351 6.75218 19.0461 4.92845 24 1.94382C28.9535 4.92845 34.5649 6.75218 40.267 7.22679L41.8474 7.35826V23.8762C41.8474 36.5351 33.3959 39.2513 23.9985 45.8215C15.7511 40.1078 6.15264 36.8654 6.15264 23.8762V7.35826Z" fill="#17696A"/>
<path d="M23.4525 40.9172C23.7938 41.1498 24.2235 41.1329 24.5474 40.8927C33.051 35.0183 38.09 33.0854 38.09 23.8774V11.5811C38.09 11.1171 37.7499 10.7227 37.2901 10.6539C32.7945 9.97967 28.4681 8.58331 24.4308 6.50359C24.1402 6.35381 23.7941 6.37285 23.5278 6.52447C19.5018 8.5932 15.1893 9.9826 10.7099 10.6539C10.2501 10.7227 9.90997 11.1168 9.90997 11.5811V23.8774C9.90997 33.1722 15.4289 35.4534 23.4525 40.9172V40.9172ZM11.7886 12.3806C15.6953 11.721 19.4732 10.5349 23.0511 8.84845V22.5938C23.0511 23.1117 23.4716 23.5313 23.9905 23.5313C24.5093 23.5313 24.9298 23.1117 24.9298 22.5938V8.83966C28.5128 10.5301 32.2977 11.7195 36.2113 12.3806V23.8774C36.2113 31.4983 32.6345 33.1598 24.9298 38.3604V30.0939C24.9298 29.576 24.5093 29.1564 23.9905 29.1564C23.4716 29.1564 23.0511 29.576 23.0511 30.0939V38.3875C15.8524 33.6047 11.7886 31.5609 11.7886 23.8774V12.3806Z" fill="#17696A"/>
</g>
<defs>
<clipPath id="clip0_30_184">
<rect width="48" height="48" fill="white"/>
</clipPath>
</defs>
</svg>
