<svg width="20" height="20" viewBox="0 0 20 20" fill="none" xmlns="http://www.w3.org/2000/svg">
<path fill-rule="evenodd" clip-rule="evenodd" d="M9.99946 16.5898C6.16691 14.407 4.02937 12.2374 2.99573 10.355C1.9378 8.42834 2.0301 6.80561 2.61715 5.65391C3.8238 3.28663 7.25513 2.52965 9.34577 5.1738L9.99941 6.00051L10.6531 5.17384C12.7441 2.52958 16.1756 3.28669 17.3823 5.6539C17.9693 6.80559 18.0616 8.42831 17.0036 10.355C15.9698 12.2374 13.8322 14.407 9.99946 16.5898ZM9.99949 3.42206C7.05849 0.627386 2.71983 1.78242 1.13226 4.89703C0.260971 6.60637 0.24907 8.81564 1.53481 11.1572C2.80914 13.478 5.3499 15.9276 9.59634 18.2747L9.99945 18.4975L10.4026 18.2747C14.6492 15.9276 17.19 13.478 18.4645 11.1572C19.7503 8.81566 19.7384 6.60638 18.8671 4.89703C17.2795 1.78236 12.9408 0.627429 9.99949 3.42206Z" fill="#424551"/>
</svg>
