<svg width="16" height="17" viewBox="0 0 16 17" fill="none" xmlns="http://www.w3.org/2000/svg">
<path fill-rule="evenodd" clip-rule="evenodd" d="M8.00012 2.66683C6.71145 2.66683 5.66679 3.7115 5.66679 5.00016C5.66679 6.28883 6.71145 7.3335 8.00012 7.3335C9.28878 7.3335 10.3335 6.28883 10.3335 5.00016C10.3335 3.7115 9.28878 2.66683 8.00012 2.66683ZM4.33345 5.00016C4.33345 2.97512 5.97508 1.3335 8.00012 1.3335C10.0252 1.3335 11.6668 2.97512 11.6668 5.00016C11.6668 7.02521 10.0252 8.66683 8.00012 8.66683C5.97508 8.66683 4.33345 7.02521 4.33345 5.00016Z" fill="white"/>
<path fill-rule="evenodd" clip-rule="evenodd" d="M4.06949 10.6668C3.60728 10.6668 3.24601 10.8919 3.09936 11.2152C2.89639 11.6628 2.71258 12.1956 2.66921 12.7009C2.64982 12.9268 2.74402 13.0933 2.8738 13.1739C3.55991 13.6002 5.14971 14.3335 8.00012 14.3335C10.8505 14.3335 12.4403 13.6002 13.1264 13.1739C13.2562 13.0933 13.3504 12.9268 13.331 12.7009C13.2877 12.1956 13.1039 11.6628 12.9009 11.2152C12.7542 10.8919 12.393 10.6668 11.9307 10.6668H4.06949ZM1.88507 10.6645C2.29037 9.77088 3.19539 9.3335 4.06949 9.3335H11.9307C12.8048 9.3335 13.7099 9.77088 14.1152 10.6645C14.348 11.1778 14.5978 11.8678 14.6595 12.5869C14.7157 13.2417 14.4435 13.9254 13.83 14.3065C12.9277 14.8671 11.0932 15.6668 8.00012 15.6668C4.90705 15.6668 3.07259 14.8671 2.17023 14.3065C1.55672 13.9254 1.28456 13.2417 1.34076 12.5869C1.40248 11.8678 1.65228 11.1778 1.88507 10.6645Z" fill="white"/>
</svg>
