<svg width="16" height="16" viewBox="0 0 16 16" fill="none" xmlns="http://www.w3.org/2000/svg">
<path fill-rule="evenodd" clip-rule="evenodd" d="M7.25001 2.16683C4.44256 2.16683 2.16668 4.44272 2.16668 7.25016C2.16668 10.0576 4.44256 12.3335 7.25001 12.3335C8.6526 12.3335 9.92145 11.7663 10.8419 10.8472C11.764 9.92637 12.3333 8.65539 12.3333 7.25016C12.3333 4.44272 10.0575 2.16683 7.25001 2.16683ZM0.833344 7.25016C0.833344 3.70634 3.70618 0.833496 7.25001 0.833496C10.7938 0.833496 13.6667 3.70634 13.6667 7.25016C13.6667 8.78297 13.1286 10.191 12.232 11.2944L14.971 14.0283C15.2316 14.2884 15.232 14.7105 14.9718 14.9711C14.7117 15.2317 14.2896 15.2321 14.029 14.972L11.2887 12.2367C10.1862 13.1305 8.78023 13.6668 7.25001 13.6668C3.70618 13.6668 0.833344 10.794 0.833344 7.25016Z" fill="#424551"/>
</svg>
