<svg width="20" height="12" viewBox="0 0 20 12" fill="none" xmlns="http://www.w3.org/2000/svg">
<g clip-path="url(#clip0_1_792)">
<path d="M20 0H0V12H20V0Z" fill="#B22234"/>
<path fill-rule="evenodd" clip-rule="evenodd" d="M20 1.74575H0V0.800293H20V1.74575ZM0 2.6912H20V3.63666H0V2.6912ZM20 5.52757H0V4.58211H20V5.52757ZM0 6.47302H20V7.41847H0V6.47302ZM20 9.30938H0V8.36393H20V9.30938ZM0 10.2548H20V11.2003H0V10.2548Z" fill="white"/>
<path d="M9.12 0H0V6.46154H9.12V0Z" fill="#3C3B6E"/>
<path d="M0.759576 0.221191L0.976604 0.889136L0.408417 0.476324H1.11074L0.542548 0.889136L0.759576 0.221191Z" fill="white"/>
<path d="M2.27422 0.221191L2.49124 0.889136L1.92306 0.476324H2.62537L2.05719 0.889136L2.27422 0.221191Z" fill="white"/>
<path d="M3.78885 0.221191L4.00588 0.889136L3.43769 0.476324H4.14001L3.57183 0.889136L3.78885 0.221191Z" fill="white"/>
<path d="M8.33277 0.221191L8.5498 0.889136L7.98161 0.476324H8.68393L8.11574 0.889136L8.33277 0.221191Z" fill="white"/>
<path d="M6.81813 0.221191L7.03516 0.889136L6.46697 0.476324H7.16929L6.6011 0.889136L6.81813 0.221191Z" fill="white"/>
<path d="M5.30349 0.221191L5.52052 0.889136L4.95233 0.476324H5.65465L5.08647 0.889136L5.30349 0.221191Z" fill="white"/>
<path d="M0.759576 1.55709L0.976604 2.22504L0.408417 1.81222H1.11074L0.542548 2.22504L0.759576 1.55709Z" fill="white"/>
<path d="M2.27422 1.55709L2.49124 2.22504L1.92306 1.81222H2.62537L2.05719 2.22504L2.27422 1.55709Z" fill="white"/>
<path d="M3.78885 1.55709L4.00588 2.22504L3.43769 1.81222H4.14001L3.57183 2.22504L3.78885 1.55709Z" fill="white"/>
<path d="M8.33277 1.55709L8.5498 2.22504L7.98161 1.81222H8.68393L8.11574 2.22504L8.33277 1.55709Z" fill="white"/>
<path d="M6.81813 1.55709L7.03516 2.22504L6.46697 1.81222H7.16929L6.6011 2.22504L6.81813 1.55709Z" fill="white"/>
<path d="M5.30349 1.55709L5.52052 2.22504L4.95233 1.81222H5.65465L5.08647 2.22504L5.30349 1.55709Z" fill="white"/>
<path d="M0.759576 2.89299L0.976604 3.56094L0.408417 3.14813H1.11074L0.542548 3.56094L0.759576 2.89299Z" fill="white"/>
<path d="M2.27422 2.89299L2.49124 3.56094L1.92306 3.14813H2.62537L2.05719 3.56094L2.27422 2.89299Z" fill="white"/>
<path d="M3.78885 2.89299L4.00588 3.56094L3.43769 3.14813H4.14001L3.57183 3.56094L3.78885 2.89299Z" fill="white"/>
<path d="M8.33277 2.89299L8.5498 3.56094L7.98161 3.14813H8.68393L8.11574 3.56094L8.33277 2.89299Z" fill="white"/>
<path d="M6.81813 2.89299L7.03516 3.56094L6.46697 3.14813H7.16929L6.6011 3.56094L6.81813 2.89299Z" fill="white"/>
<path d="M5.30349 2.89299L5.52052 3.56094L4.95233 3.14813H5.65465L5.08647 3.56094L5.30349 2.89299Z" fill="white"/>
<path d="M0.759576 4.2289L0.976604 4.89684L0.408417 4.48403H1.11074L0.542548 4.89684L0.759576 4.2289Z" fill="white"/>
<path d="M2.27422 4.2289L2.49124 4.89684L1.92306 4.48403H2.62537L2.05719 4.89684L2.27422 4.2289Z" fill="white"/>
<path d="M3.78885 4.2289L4.00588 4.89684L3.43769 4.48403H4.14001L3.57183 4.89684L3.78885 4.2289Z" fill="white"/>
<path d="M8.33277 4.2289L8.5498 4.89684L7.98161 4.48403H8.68393L8.11574 4.89684L8.33277 4.2289Z" fill="white"/>
<path d="M6.81813 4.2289L7.03516 4.89684L6.46697 4.48403H7.16929L6.6011 4.89684L6.81813 4.2289Z" fill="white"/>
<path d="M5.30349 4.2289L5.52052 4.89684L4.95233 4.48403H5.65465L5.08647 4.89684L5.30349 4.2289Z" fill="white"/>
<path d="M0.759576 5.5648L0.976604 6.23274L0.408417 5.81993H1.11074L0.542548 6.23274L0.759576 5.5648Z" fill="white"/>
<path d="M2.27422 5.5648L2.49124 6.23274L1.92306 5.81993H2.62537L2.05719 6.23274L2.27422 5.5648Z" fill="white"/>
<path d="M3.78885 5.5648L4.00588 6.23274L3.43769 5.81993H4.14001L3.57183 6.23274L3.78885 5.5648Z" fill="white"/>
<path d="M8.33277 5.5648L8.5498 6.23274L7.98161 5.81993H8.68393L8.11574 6.23274L8.33277 5.5648Z" fill="white"/>
<path d="M6.81813 5.5648L7.03516 6.23274L6.46697 5.81993H7.16929L6.6011 6.23274L6.81813 5.5648Z" fill="white"/>
<path d="M5.30349 5.5648L5.52052 6.23274L4.95233 5.81993H5.65465L5.08647 6.23274L5.30349 5.5648Z" fill="white"/>
<path d="M1.51379 0.889142L1.73082 1.55709L1.16264 1.14427H1.86495L1.29677 1.55709L1.51379 0.889142Z" fill="white"/>
<path d="M3.02843 0.889142L3.24546 1.55709L2.67727 1.14427H3.37959L2.81141 1.55709L3.02843 0.889142Z" fill="white"/>
<path d="M4.54307 0.889142L4.7601 1.55709L4.19191 1.14427H4.89423L4.32604 1.55709L4.54307 0.889142Z" fill="white"/>
<path d="M7.57235 0.889142L7.78938 1.55709L7.22119 1.14427H7.92351L7.35532 1.55709L7.57235 0.889142Z" fill="white"/>
<path d="M6.05771 0.889142L6.27474 1.55709L5.70655 1.14427H6.40887L5.84068 1.55709L6.05771 0.889142Z" fill="white"/>
<path d="M1.51379 2.22504L1.73082 2.89299L1.16264 2.48018H1.86495L1.29677 2.89299L1.51379 2.22504Z" fill="white"/>
<path d="M3.02843 2.22504L3.24546 2.89299L2.67727 2.48018H3.37959L2.81141 2.89299L3.02843 2.22504Z" fill="white"/>
<path d="M4.54307 2.22504L4.7601 2.89299L4.19191 2.48018H4.89423L4.32604 2.89299L4.54307 2.22504Z" fill="white"/>
<path d="M7.57235 2.22504L7.78938 2.89299L7.22119 2.48018H7.92351L7.35532 2.89299L7.57235 2.22504Z" fill="white"/>
<path d="M6.05771 2.22504L6.27474 2.89299L5.70655 2.48018H6.40887L5.84068 2.89299L6.05771 2.22504Z" fill="white"/>
<path d="M1.51379 3.56094L1.73082 4.22889L1.16264 3.81608H1.86495L1.29677 4.22889L1.51379 3.56094Z" fill="white"/>
<path d="M3.02843 3.56094L3.24546 4.22889L2.67727 3.81608H3.37959L2.81141 4.22889L3.02843 3.56094Z" fill="white"/>
<path d="M4.54307 3.56094L4.7601 4.22889L4.19191 3.81608H4.89423L4.32604 4.22889L4.54307 3.56094Z" fill="white"/>
<path d="M7.57235 3.56094L7.78938 4.22889L7.22119 3.81608H7.92351L7.35532 4.22889L7.57235 3.56094Z" fill="white"/>
<path d="M6.05771 3.56094L6.27474 4.22889L5.70655 3.81608H6.40887L5.84068 4.22889L6.05771 3.56094Z" fill="white"/>
<path d="M1.51379 4.89685L1.73082 5.56479L1.16264 5.15198H1.86495L1.29677 5.56479L1.51379 4.89685Z" fill="white"/>
<path d="M3.02843 4.89685L3.24546 5.56479L2.67727 5.15198H3.37959L2.81141 5.56479L3.02843 4.89685Z" fill="white"/>
<path d="M4.54307 4.89685L4.7601 5.56479L4.19191 5.15198H4.89423L4.32604 5.56479L4.54307 4.89685Z" fill="white"/>
<path d="M7.57235 4.89685L7.78938 5.56479L7.22119 5.15198H7.92351L7.35532 5.56479L7.57235 4.89685Z" fill="white"/>
<path d="M6.05771 4.89685L6.27474 5.56479L5.70655 5.15198H6.40887L5.84068 5.56479L6.05771 4.89685Z" fill="white"/>
</g>
<defs>
<clipPath id="clip0_1_792">
<rect width="20" height="12" fill="white"/>
</clipPath>
</defs>
</svg>
