<svg width="32" height="32" viewBox="0 0 32 32" fill="none" xmlns="http://www.w3.org/2000/svg">
<rect opacity="0.12" width="32" height="32" rx="4" fill="white"/>
<path d="M22.6536 13.2535C22.6224 12.5451 22.5078 12.058 22.3437 11.636C22.1744 11.188 21.9139 10.7869 21.5727 10.4535C21.2392 10.1149 20.8355 9.85179 20.3927 9.68513C19.9682 9.52101 19.4837 9.40645 18.7753 9.37521C18.0615 9.34133 17.835 9.3335 16.0247 9.3335C14.2145 9.3335 13.9879 9.34133 13.2768 9.37257C12.5683 9.4038 12.0813 9.51847 11.6593 9.68248C11.2113 9.85179 10.8102 10.1123 10.4768 10.4535C10.1382 10.7869 9.87514 11.1906 9.70838 11.6334C9.54427 12.058 9.4297 12.5424 9.39847 13.2509C9.36458 13.9646 9.35675 14.1912 9.35675 16.0015C9.35675 17.8117 9.36458 18.0383 9.39582 18.7494C9.42706 19.4578 9.54172 19.9449 9.70584 20.3669C9.87514 20.8149 10.1382 21.216 10.4768 21.5494C10.8102 21.888 11.2139 22.1511 11.6567 22.3178C12.0813 22.4819 12.5657 22.5965 13.2742 22.6277C13.9852 22.6591 14.2119 22.6668 16.0222 22.6668C17.8324 22.6668 18.059 22.6591 18.7701 22.6277C19.4785 22.5965 19.9656 22.4819 20.3875 22.3178C21.2836 21.9714 21.9921 21.2629 22.3385 20.3669C22.5025 19.9424 22.6172 19.4578 22.6484 18.7494C22.6796 18.0383 22.6875 17.8117 22.6875 16.0015C22.6875 14.1912 22.6848 13.9646 22.6536 13.2535ZM21.4529 18.6973C21.4242 19.3485 21.3148 19.7001 21.2237 19.9345C20.9996 20.5154 20.5386 20.9764 19.9578 21.2004C19.7233 21.2916 19.3692 21.401 18.7205 21.4296C18.0173 21.4609 17.8064 21.4686 16.0274 21.4686C14.2483 21.4686 14.0348 21.4609 13.3341 21.4296C12.6829 21.401 12.3313 21.2916 12.0968 21.2004C11.8078 21.0936 11.5447 20.9243 11.3311 20.7029C11.1097 20.4867 10.9404 20.2262 10.8336 19.9372C10.7424 19.7027 10.633 19.3485 10.6044 18.6999C10.5731 17.9967 10.5654 17.7857 10.5654 16.0067C10.5654 14.2276 10.5731 14.0141 10.6044 13.3135C10.633 12.6623 10.7424 12.3107 10.8336 12.0762C10.9404 11.7871 11.1097 11.5241 11.3338 11.3104C11.5499 11.089 11.8103 10.9197 12.0995 10.813C12.3339 10.7218 12.6882 10.6124 13.3367 10.5837C14.04 10.5525 14.251 10.5447 16.0299 10.5447C17.8116 10.5447 18.0225 10.5525 18.7232 10.5837C19.3744 10.6124 19.726 10.7218 19.9604 10.813C20.2495 10.9197 20.5126 11.089 20.7261 11.3104C20.9475 11.5266 21.1168 11.7871 21.2237 12.0762C21.3148 12.3107 21.4242 12.6648 21.4529 13.3135C21.4841 14.0167 21.492 14.2276 21.492 16.0067C21.492 17.7857 21.4841 17.994 21.4529 18.6973Z" fill="white"/>
<path d="M16.0247 12.5763C14.1338 12.5763 12.5996 14.1104 12.5996 16.0015C12.5996 17.8925 14.1338 19.4266 16.0247 19.4266C17.9157 19.4266 19.4499 17.8925 19.4499 16.0015C19.4499 14.1104 17.9157 12.5763 16.0247 12.5763ZM16.0247 18.2233C14.798 18.2233 13.8029 17.2283 13.8029 16.0015C13.8029 14.7746 14.798 13.7797 16.0247 13.7797C17.2516 13.7797 18.2465 14.7746 18.2465 16.0015C18.2465 17.2283 17.2516 18.2233 16.0247 18.2233Z" fill="white"/>
<path d="M20.385 12.4409C20.385 12.8825 20.027 13.2405 19.5853 13.2405C19.1437 13.2405 18.7857 12.8825 18.7857 12.4409C18.7857 11.9992 19.1437 11.6413 19.5853 11.6413C20.027 11.6413 20.385 11.9992 20.385 12.4409Z" fill="white"/>
</svg>
