<svg width="16" height="16" viewBox="0 0 16 16" fill="none" xmlns="http://www.w3.org/2000/svg">
<path fill-rule="evenodd" clip-rule="evenodd" d="M7.99959 13.272C4.93355 11.5257 3.22351 9.79004 2.3966 8.2841C1.55026 6.74277 1.6241 5.44459 2.09374 4.52322C3.05905 2.6294 5.80412 2.02382 7.47663 4.13914L7.99955 4.8005L8.52251 4.13917C10.1953 2.02376 12.9405 2.62945 13.9058 4.52322C14.3755 5.44457 14.4493 6.74275 13.6029 8.28408C12.7759 9.79003 11.0658 11.5257 7.99959 13.272ZM7.99961 2.73775C5.64681 0.502007 2.17588 1.42603 0.905824 3.91772C0.208796 5.28519 0.199274 7.05261 1.22787 8.92585C2.24733 10.7825 4.27994 12.7422 7.67709 14.6199L7.99958 14.7981L8.32207 14.6199C11.7193 12.7422 13.752 10.7825 14.7716 8.92586C15.8002 7.05263 15.7908 5.28521 15.0937 3.91772C13.8237 1.42599 10.3526 0.502041 7.99961 2.73775Z" fill="#17696A"/>
</svg>
