<svg width="32" height="32" viewBox="0 0 32 32" fill="none" xmlns="http://www.w3.org/2000/svg">
<rect opacity="0.12" width="32" height="32" rx="4" fill="white"/>
<path d="M23 11.8484C22.4847 12.067 21.9318 12.2153 21.3509 12.2815C21.9441 11.9414 22.3981 11.4019 22.6133 10.7611C22.0569 11.0761 21.4428 11.3048 20.7884 11.4287C20.2644 10.8935 19.519 10.5601 18.6923 10.5601C17.1062 10.5601 15.8202 11.7914 15.8202 13.3093C15.8202 13.5246 15.8456 13.7348 15.8946 13.9359C13.508 13.8211 11.3918 12.7263 9.97543 11.0626C9.72784 11.4681 9.58699 11.9405 9.58699 12.4448C9.58699 13.3989 10.0944 14.2408 10.8643 14.7333C10.3936 14.7182 9.95093 14.5943 9.56339 14.3882V14.4225C9.56339 15.7544 10.5537 16.866 11.8668 17.119C11.6262 17.181 11.3725 17.2153 11.1101 17.2153C10.9246 17.2153 10.7453 17.1978 10.5694 17.1642C10.9351 18.2574 11.9954 19.0523 13.2517 19.0741C12.2693 19.8113 11.0305 20.2494 9.68499 20.2494C9.45317 20.2494 9.22482 20.236 9 20.2117C10.2711 20.9933 11.7802 21.4489 13.4022 21.4489C18.6853 21.4489 21.5732 17.2589 21.5732 13.6251L21.5635 13.2691C22.1278 12.8837 22.6159 12.3996 23 11.8484Z" fill="white"/>
</svg>
