<svg width="32" height="32" viewBox="0 0 32 32" fill="none" xmlns="http://www.w3.org/2000/svg">
<circle cx="16" cy="16" r="16" fill="white"/>
<path fill-rule="evenodd" clip-rule="evenodd" d="M15.9996 21.2718C12.9335 19.5255 11.2235 17.7899 10.3966 16.2839C9.55023 14.7426 9.62407 13.4444 10.0937 12.5231C11.059 10.6292 13.8041 10.0236 15.4766 12.139L15.9995 12.8003L16.5225 12.139C18.1953 10.0236 20.9405 10.6293 21.9058 12.5231C22.3754 13.4444 22.4492 14.7426 21.6028 16.2839C20.7759 17.7899 19.0657 19.5255 15.9996 21.2718ZM15.9996 10.7376C13.6468 8.50184 10.1759 9.42587 8.90579 11.9176C8.20876 13.285 8.19924 15.0524 9.22784 16.9257C10.2473 18.7823 12.2799 20.742 15.6771 22.6197L15.9995 22.7979L16.322 22.6197C19.7193 20.742 21.752 18.7823 22.7716 16.9257C23.8002 15.0525 23.7907 13.285 23.0937 11.9176C21.8236 9.42582 18.3526 8.50187 15.9996 10.7376Z" fill="#787A80"/>
</svg>
