<svg width="14" height="13" viewBox="0 0 14 13" fill="none" xmlns="http://www.w3.org/2000/svg">
<path fill-rule="evenodd" clip-rule="evenodd" d="M5.9321 1.28422C6.33737 0.349637 7.66274 0.349635 8.06801 1.28422L9.29395 4.11135L12.3615 4.40366C13.3756 4.50029 13.7852 5.76079 13.0216 6.43503L10.7117 8.4746L11.3816 11.4824C11.6031 12.4767 10.5308 13.2557 9.65361 12.7378L7.00006 11.1712L4.34651 12.7378C3.4693 13.2557 2.39705 12.4767 2.61852 11.4824L3.28845 8.4746L0.978531 6.43503C0.214922 5.7608 0.624485 4.50029 1.63856 4.40366L4.70616 4.11135L5.9321 1.28422ZM8.226 4.57445L7.00006 1.74733L5.77412 4.57445C5.60544 4.96342 5.23863 5.22993 4.81658 5.27014L1.74898 5.56245L4.05891 7.60202C4.37672 7.88263 4.51683 8.31385 4.42465 8.72767L3.75472 11.7355L6.40827 10.1689C6.77335 9.95331 7.22676 9.95331 7.59185 10.1689L10.2454 11.7355L9.57546 8.72767C9.48328 8.31385 9.6234 7.88263 9.94121 7.60202L12.2511 5.56245L9.18353 5.27014C8.76148 5.22993 8.39467 4.96342 8.226 4.57445Z" fill="#B3B7BC"/>
</svg>
