<svg width="16" height="15" viewBox="0 0 16 15" fill="none" xmlns="http://www.w3.org/2000/svg">
<path fill-rule="evenodd" clip-rule="evenodd" d="M2.5944 2.00531C2.52929 2.0004 2.43894 1.99996 2.2695 1.99996H1.16667C0.798477 1.99996 0.5 1.70149 0.5 1.3333C0.5 0.965106 0.798477 0.666629 1.16667 0.666629H2.2695C2.27578 0.666629 2.28207 0.666628 2.28835 0.666628C2.43146 0.66661 2.57315 0.666592 2.69458 0.675742C2.82971 0.685923 2.9867 0.709837 3.14911 0.782283C3.37767 0.88424 3.57293 1.04847 3.71254 1.25619C3.81174 1.40378 3.8622 1.55435 3.89538 1.68573C3.9252 1.8038 3.94946 1.9434 3.97397 2.0844C3.97504 2.09058 3.97612 2.09678 3.9772 2.10297L4.13605 3.01635L12.812 3.27317C13.152 3.28322 13.4458 3.29191 13.6878 3.31856C13.9436 3.34673 14.1971 3.39969 14.4404 3.52928C14.809 3.72564 15.1068 4.03245 15.2922 4.40668C15.4145 4.65365 15.46 4.90867 15.4805 5.16515C15.5 5.4078 15.5 5.70174 15.5 6.04187V6.09103C15.5 6.41068 15.5 6.68795 15.4821 6.91788C15.4631 7.16172 15.4213 7.40391 15.3095 7.64122C15.1395 8.00243 14.8653 8.30448 14.5221 8.50851C14.2967 8.64256 14.0597 8.70757 13.8188 8.74996C13.5917 8.78993 13.3157 8.81662 12.9975 8.8474L6.50826 9.4754C6.18213 9.50697 5.89956 9.53432 5.66381 9.53847C5.41403 9.54286 5.1636 9.52346 4.91219 9.43111C4.53514 9.2926 4.20854 9.04376 3.97491 8.717C3.81913 8.49912 3.73395 8.26283 3.67188 8.02085C3.6133 7.79245 3.56467 7.51277 3.50854 7.18997L2.66358 2.33143C2.63455 2.16449 2.61864 2.07555 2.60265 2.01224C2.60208 2.00999 2.60153 2.00786 2.601 2.00583C2.59891 2.00566 2.59672 2.00548 2.5944 2.00531ZM4.36923 4.35717L4.81796 6.93736C4.8795 7.29119 4.9195 7.51838 4.96341 7.68958C5.00529 7.85287 5.03842 7.91199 5.05953 7.94151C5.1374 8.05043 5.24627 8.13338 5.37195 8.17955C5.40602 8.19206 5.47181 8.20831 5.64036 8.20534C5.81708 8.20224 6.04674 8.1805 6.40421 8.1459L12.8451 7.52259C13.1941 7.48882 13.4178 7.46669 13.5877 7.4368C13.7495 7.40833 13.8099 7.38078 13.8407 7.36246C13.9551 7.29445 14.0465 7.19376 14.1032 7.07336C14.1184 7.04094 14.1401 6.97817 14.1528 6.81437C14.1662 6.64242 14.1667 6.41755 14.1667 6.06696C14.1667 5.69463 14.1662 5.45472 14.1515 5.27183C14.1374 5.09683 14.1136 5.03122 14.0974 4.9985C14.0356 4.87376 13.9363 4.77149 13.8135 4.70603C13.7812 4.68886 13.7164 4.6631 13.5418 4.64388C13.3595 4.62379 13.1197 4.6162 12.7475 4.60518L4.36923 4.35717Z" fill="white"/>
<path fill-rule="evenodd" clip-rule="evenodd" d="M6.16667 11.6666C5.79848 11.6666 5.5 11.9651 5.5 12.3333C5.5 12.7015 5.79848 13 6.16667 13C6.53486 13 6.83333 12.7015 6.83333 12.3333C6.83333 11.9651 6.53486 11.6666 6.16667 11.6666ZM4.16667 12.3333C4.16667 11.2287 5.0621 10.3333 6.16667 10.3333C7.27124 10.3333 8.16667 11.2287 8.16667 12.3333C8.16667 13.4379 7.27124 14.3333 6.16667 14.3333C5.0621 14.3333 4.16667 13.4379 4.16667 12.3333Z" fill="white"/>
<path fill-rule="evenodd" clip-rule="evenodd" d="M12.5 11.6666C12.1318 11.6666 11.8333 11.9651 11.8333 12.3333C11.8333 12.7015 12.1318 13 12.5 13C12.8682 13 13.1667 12.7015 13.1667 12.3333C13.1667 11.9651 12.8682 11.6666 12.5 11.6666ZM10.5 12.3333C10.5 11.2287 11.3954 10.3333 12.5 10.3333C13.6046 10.3333 14.5 11.2287 14.5 12.3333C14.5 13.4379 13.6046 14.3333 12.5 14.3333C11.3954 14.3333 10.5 13.4379 10.5 12.3333Z" fill="white"/>
</svg>
