<svg width="162" height="48" viewBox="0 0 162 48" fill="none" xmlns="http://www.w3.org/2000/svg">
<g clip-path="url(#clip0_1_402)">
<path d="M156.322 48H5.67829C2.54097 48 0 45.46 0 42.324V5.67603C0 2.53996 2.54097 0 5.67829 0H156.322C159.459 0 162 2.53996 162 5.67603V42.324C162 45.46 159.459 48 156.322 48Z" fill="#424551"/>
<path d="M160.937 42.324C160.937 44.8639 158.888 46.9114 156.347 46.9114H5.70413C3.16316 46.9114 1.08889 44.8639 1.08889 42.324V5.67601C1.08889 3.13606 3.16316 1.06262 5.70413 1.06262H156.347C158.888 1.06262 160.963 3.11014 160.963 5.67601L160.937 42.324Z" fill="#424551"/>
<path d="M36.1653 23.7408C36.1394 19.879 39.3281 17.987 39.4837 17.9093C37.6689 15.2657 34.869 14.9028 33.858 14.8769C31.4988 14.6177 29.2174 16.3024 27.999 16.3024C26.7805 16.3024 24.9139 14.9028 22.9177 14.9546C20.3512 15.0065 17.9402 16.4838 16.618 18.7905C13.8959 23.5076 15.918 30.4276 18.5364 34.2117C19.8327 36.0777 21.3622 38.1512 23.3584 38.0734C25.3028 37.9957 26.0287 36.8294 28.3878 36.8294C30.7211 36.8294 31.3951 38.0734 33.4432 38.0216C35.5431 37.9957 36.8653 36.1555 38.1096 34.2635C39.6133 32.1382 40.2095 30.013 40.2355 29.9093C40.2355 29.9093 36.2171 28.3801 36.1653 23.7408ZM32.3284 12.3628C33.3654 11.041 34.0913 9.27861 33.8839 7.46436C32.3543 7.54211 30.4618 8.52699 29.373 9.79697C28.4138 10.9374 27.5323 12.7775 27.7656 14.514C29.4767 14.6436 31.2396 13.6587 32.3284 12.3628Z" fill="white"/>
<path d="M156.322 0H75.6328L107.239 48H156.322C159.459 48 162 45.46 162 42.324V5.67603C162 2.53996 159.459 0 156.322 0Z" fill="url(#paint0_linear_1_402)"/>
<path d="M64.432 37.8143H61.7095L60.2056 33.1231H55.02L53.5939 37.8143H50.9492L56.0831 21.8488H59.2722L64.432 37.8143ZM59.7649 31.1534L58.4166 26.9806C58.261 26.5659 58.0017 25.5551 57.6128 23.9741H57.561C57.4054 24.648 57.1461 25.6588 56.809 26.9806L55.4867 31.1534H59.7649ZM77.6295 31.905C77.6295 33.8747 77.085 35.4039 76.0219 36.5443C75.0626 37.5551 73.8958 38.0734 72.4697 38.0734C70.94 38.0734 69.851 37.5292 69.1768 36.4406V42.4795H66.6359V30.0648C66.6359 28.8467 66.6099 27.5767 66.5322 26.2808H68.7879L68.9435 28.0951H68.9953C69.851 26.7214 71.1474 26.0216 72.8846 26.0216C74.2329 26.0216 75.3737 26.5659 76.2812 27.6285C77.1887 28.743 77.6295 30.1685 77.6295 31.905ZM75.0366 32.0087C75.0366 30.8942 74.7773 29.9611 74.2847 29.2354C73.7402 28.4838 72.9883 28.0951 72.0549 28.0951C71.4326 28.0951 70.8622 28.3024 70.3436 28.7171C69.825 29.1318 69.488 29.676 69.3324 30.3758C69.2546 30.635 69.2287 30.8942 69.2028 31.1534V33.0713C69.2028 33.9007 69.462 34.6264 69.9806 35.1966C70.4992 35.7668 71.1733 36.0519 71.9771 36.0519C72.9364 36.0519 73.6884 35.689 74.2329 34.9374C74.7773 34.2117 75.0366 33.2268 75.0366 32.0087ZM90.9047 31.905C90.9047 33.8747 90.3602 35.4039 89.2972 36.5443C88.3378 37.5551 87.1711 38.0734 85.745 38.0734C84.2153 38.0734 83.1263 37.5292 82.4521 36.4406V42.4795H79.8852V30.0648C79.8852 28.8467 79.8593 27.5767 79.7815 26.2808H82.0373L82.1928 28.0951H82.2447C83.1003 26.7214 84.3967 26.0216 86.1339 26.0216C87.4822 26.0216 88.6231 26.5659 89.5305 27.6285C90.438 28.743 90.9047 30.1685 90.9047 31.905ZM88.286 32.0087C88.286 30.8942 88.0267 29.9611 87.5341 29.2354C86.9896 28.4838 86.2377 28.0951 85.3042 28.0951C84.682 28.0951 84.1115 28.3024 83.593 28.7171C83.0744 29.1318 82.7373 29.676 82.5818 30.3758C82.504 30.6868 82.4521 30.946 82.4521 31.1534V33.0713C82.4521 33.9007 82.7114 34.6264 83.23 35.1966C83.7485 35.7668 84.4227 36.0519 85.2265 36.0519C86.1858 36.0519 86.9377 35.689 87.4822 34.9374C88.0267 34.2117 88.286 33.2268 88.286 32.0087ZM105.71 33.3305C105.71 34.6782 105.243 35.7927 104.284 36.648C103.247 37.581 101.795 38.0475 99.9278 38.0475C98.2165 38.0475 96.8423 37.7106 95.7793 37.0627L96.3756 34.9374C97.4905 35.6112 98.7351 35.9223 100.083 35.9223C101.043 35.9223 101.795 35.7149 102.339 35.2743C102.884 34.8337 103.143 34.2635 103.143 33.5378C103.143 32.8899 102.91 32.3456 102.469 31.905C102.028 31.4644 101.302 31.0497 100.265 30.6609C97.4646 29.6242 96.0645 28.0951 96.0645 26.0735C96.0645 24.7516 96.5571 23.689 97.5424 22.8596C98.5277 22.0303 99.85 21.6156 101.458 21.6156C102.91 21.6156 104.128 21.8747 105.088 22.3672L104.439 24.4406C103.532 23.9482 102.521 23.7149 101.38 23.7149C100.472 23.7149 99.7722 23.9482 99.2537 24.3888C98.8388 24.7776 98.6054 25.27 98.6054 25.8402C98.6054 26.4622 98.8388 27.0065 99.3314 27.3953C99.7463 27.784 100.524 28.1728 101.665 28.6393C103.039 29.1836 104.05 29.8316 104.699 30.5832C105.399 31.3089 105.71 32.216 105.71 33.3305ZM114.188 28.2246H111.362V33.8229C111.362 35.2484 111.855 35.9482 112.866 35.9482C113.333 35.9482 113.696 35.9223 114.007 35.8186L114.085 37.7624C113.592 37.9439 112.918 38.0475 112.088 38.0475C111.077 38.0475 110.299 37.7365 109.729 37.1145C109.158 36.4925 108.873 35.4557 108.873 34.0043V28.1987H107.188V26.2808H108.873V24.1814L111.388 23.4298V26.3067H114.214L114.188 28.2246ZM126.893 31.9568C126.893 33.7192 126.375 35.1706 125.363 36.311C124.3 37.4773 122.9 38.0734 121.137 38.0734C119.452 38.0734 118.104 37.5033 117.092 36.3888C116.081 35.2743 115.588 33.8488 115.588 32.1382C115.588 30.3499 116.107 28.8985 117.144 27.7581C118.181 26.6177 119.581 26.0475 121.319 26.0475C123.004 26.0475 124.378 26.6177 125.389 27.7322C126.401 28.8208 126.893 30.2462 126.893 31.9568ZM124.249 32.0087C124.249 30.946 124.015 30.0389 123.574 29.2873C123.03 28.3801 122.278 27.9136 121.267 27.9136C120.23 27.9136 119.452 28.3801 118.907 29.2873C118.441 30.0389 118.233 30.9719 118.233 32.0605C118.233 33.1231 118.467 34.0303 118.907 34.7819C119.452 35.689 120.23 36.1555 121.241 36.1555C122.226 36.1555 122.978 35.689 123.548 34.756C124.015 33.9784 124.249 33.0713 124.249 32.0087ZM135.216 28.5357C134.957 28.4838 134.672 28.4579 134.412 28.4579C133.505 28.4579 132.805 28.7948 132.338 29.4687C131.923 30.0648 131.69 30.8164 131.69 31.7495V37.7884H129.123V29.9093C129.123 28.6912 129.097 27.4989 129.045 26.2808H131.275L131.379 28.4838H131.457C131.716 27.7322 132.157 27.1102 132.727 26.6696C133.272 26.2808 133.92 26.0475 134.568 26.0475C134.801 26.0475 135.009 26.0735 135.216 26.0994V28.5357ZM146.676 31.5162C146.676 31.905 146.651 32.2938 146.573 32.6825H138.898C138.924 33.8229 139.287 34.7041 140.013 35.3002C140.661 35.8445 141.491 36.1037 142.528 36.1037C143.669 36.1037 144.706 35.9223 145.639 35.5594L146.028 37.3218C144.939 37.7884 143.643 38.0216 142.165 38.0216C140.376 38.0216 138.976 37.5033 137.965 36.4406C136.953 35.378 136.435 33.9784 136.435 32.216C136.435 30.4795 136.902 29.0281 137.861 27.8877C138.846 26.6436 140.194 26.0475 141.88 26.0475C143.539 26.0475 144.81 26.6696 145.639 27.8877C146.339 28.8726 146.676 30.0648 146.676 31.5162ZM144.239 30.8423C144.265 30.0907 144.084 29.4169 143.747 28.8726C143.306 28.1469 142.632 27.81 141.698 27.81C140.869 27.81 140.168 28.1469 139.65 28.8467C139.235 29.3909 138.976 30.0648 138.898 30.8423H144.239ZM54.294 16.1987C53.5939 16.1987 52.9717 16.1728 52.4531 16.095V8.37151C53.1791 8.26784 53.9051 8.216 54.6311 8.216C57.561 8.216 58.9092 9.6674 58.9092 12.0259C58.9092 14.7214 57.3017 16.1987 54.294 16.1987ZM54.7089 9.20088C54.3199 9.20088 53.9829 9.2268 53.6976 9.27864V15.1361C53.8532 15.162 54.1384 15.162 54.5533 15.162C56.472 15.162 57.561 14.0735 57.561 12.0259C57.561 10.2117 56.5757 9.20088 54.7089 9.20088ZM63.1096 16.2506C61.4502 16.2506 60.3871 15.0065 60.3871 13.3478C60.3871 11.6112 61.4761 10.3672 63.2133 10.3672C64.8468 10.3672 65.9358 11.5335 65.9358 13.27C65.9358 15.0065 64.795 16.2506 63.1096 16.2506ZM63.1615 11.2743C62.254 11.2743 61.6576 12.1296 61.6576 13.3218C61.6576 14.4881 62.254 15.3434 63.1355 15.3434C64.0171 15.3434 64.6135 14.4363 64.6135 13.2959C64.6394 12.1296 64.043 11.2743 63.1615 11.2743ZM75.3737 10.4709L73.6106 16.121H72.4438L71.7178 13.6588C71.5363 13.0627 71.3807 12.4406 71.2511 11.8186H71.2252C71.1215 12.4406 70.9659 13.0627 70.7585 13.6588L69.9806 16.121H68.8138L67.1544 10.4709H68.4508L69.0991 13.1663C69.2546 13.8143 69.3843 14.4104 69.488 14.9806H69.5139C69.6176 14.5141 69.7473 13.9179 69.9806 13.1663L70.7844 10.4709H71.8215L72.5994 13.1145C72.7809 13.7624 72.9364 14.3845 73.0661 14.9806H73.092C73.1698 14.4104 73.2994 13.7884 73.4809 13.1145L74.181 10.4709H75.3737ZM81.8817 16.121H80.6371V12.8812C80.6371 11.8704 80.2482 11.378 79.4963 11.378C78.7444 11.378 78.2258 12.0259 78.2258 12.7516V16.121H76.9553V12.0778C76.9553 11.5853 76.9553 11.0411 76.9035 10.4709H78.0184L78.0702 11.3521H78.0962C78.4332 10.756 79.1333 10.3672 79.8852 10.3672C81.0779 10.3672 81.8558 11.2743 81.8558 12.7516L81.8817 16.121ZM85.3561 16.121H84.0856V7.85315H85.3561V16.121ZM89.9454 16.2506C88.286 16.2506 87.2229 15.0065 87.2229 13.3478C87.2229 11.6112 88.3119 10.3672 90.0491 10.3672C91.6826 10.3672 92.7716 11.5335 92.7716 13.27C92.7716 15.0065 91.6307 16.2506 89.9454 16.2506ZM89.9973 11.2743C89.0898 11.2743 88.4934 12.1296 88.4934 13.3218C88.4934 14.4881 89.0898 15.3434 89.9713 15.3434C90.8529 15.3434 91.4492 14.4363 91.4492 13.2959C91.4492 12.1296 90.8788 11.2743 89.9973 11.2743ZM97.7239 16.121L97.6202 15.473H97.5942C97.2053 15.9914 96.6608 16.2506 95.9348 16.2506C94.9236 16.2506 94.1976 15.5508 94.1976 14.5918C94.1976 13.1922 95.4163 12.4665 97.5165 12.4665V12.3629C97.5165 11.6112 97.1275 11.2484 96.3497 11.2484C95.7793 11.2484 95.3126 11.378 94.8718 11.6631L94.6125 10.8337C95.1311 10.4968 95.7793 10.3413 96.5571 10.3413C98.035 10.3413 98.7869 11.1188 98.7869 12.6739V14.7473C98.7869 15.3175 98.8129 15.7581 98.8647 16.095L97.7239 16.121ZM97.5424 13.2959C96.1423 13.2959 95.4422 13.6328 95.4422 14.4363C95.4422 15.0324 95.8052 15.3175 96.2978 15.3175C96.946 15.3175 97.5424 14.8251 97.5424 14.1771V13.2959ZM104.88 16.121L104.828 15.2138H104.802C104.439 15.8877 103.843 16.2506 102.987 16.2506C101.613 16.2506 100.602 15.0583 100.602 13.3737C100.602 11.6112 101.639 10.3672 103.091 10.3672C103.843 10.3672 104.387 10.6264 104.699 11.1447H104.725V7.85315H105.995V14.5918C105.995 15.1361 106.021 15.6544 106.047 16.121H104.88ZM104.699 12.8035C104.699 12 104.18 11.3262 103.376 11.3262C102.443 11.3262 101.872 12.1555 101.872 13.3218C101.872 14.4622 102.469 15.2398 103.35 15.2398C104.154 15.2398 104.699 14.54 104.699 13.7365V12.8035ZM113.955 16.2506C112.296 16.2506 111.233 15.0065 111.233 13.3478C111.233 11.6112 112.322 10.3672 114.059 10.3672C115.692 10.3672 116.781 11.5335 116.781 13.27C116.781 15.0065 115.64 16.2506 113.955 16.2506ZM114.007 11.2743C113.099 11.2743 112.529 12.1296 112.529 13.3218C112.529 14.4881 113.125 15.3434 114.007 15.3434C114.888 15.3434 115.485 14.4363 115.485 13.2959C115.459 12.1296 114.888 11.2743 114.007 11.2743ZM123.548 16.121H122.278V12.8812C122.278 11.8704 121.889 11.378 121.137 11.378C120.385 11.378 119.893 12.0259 119.893 12.7516V16.121H118.622V12.0778C118.622 11.5853 118.622 11.0411 118.57 10.4709H119.685L119.737 11.3521H119.763C120.1 10.756 120.8 10.3672 121.552 10.3672C122.745 10.3672 123.523 11.2743 123.523 12.7516V16.121H123.548ZM132.001 11.4039H130.627V14.1512C130.627 14.851 130.86 15.1879 131.353 15.1879C131.586 15.1879 131.768 15.162 131.923 15.1361L131.949 16.095C131.716 16.1987 131.379 16.2246 130.964 16.2246C129.979 16.2246 129.382 15.6804 129.382 14.2549V11.4039H128.553V10.4709H129.382V9.43414L130.627 9.07129V10.4709H132.001V11.4039ZM138.665 16.121H137.42V12.9071C137.42 11.8963 137.031 11.378 136.279 11.378C135.631 11.378 135.009 11.8186 135.009 12.7257V16.1469H133.764V7.85315H135.009V11.2484H135.035C135.424 10.6264 135.994 10.3154 136.746 10.3154C137.939 10.3154 138.665 11.2484 138.665 12.7257V16.121ZM145.484 13.6069H141.698C141.724 14.6696 142.424 15.2916 143.487 15.2916C144.058 15.2916 144.55 15.1879 145.017 15.0324L145.225 15.9136C144.68 16.1469 144.058 16.2506 143.332 16.2506C141.569 16.2506 140.506 15.1361 140.506 13.3996C140.506 11.6631 141.569 10.3672 143.176 10.3672C144.628 10.3672 145.536 11.4298 145.536 13.0627C145.536 13.2182 145.536 13.3996 145.484 13.6069ZM144.343 12.6998C144.343 11.8186 143.902 11.1966 143.098 11.1966C142.372 11.1966 141.802 11.8186 141.724 12.6998H144.343Z" fill="white"/>
</g>
<defs>
<linearGradient id="paint0_linear_1_402" x1="118.823" y1="48.1132" x2="118.823" y2="-644.442" gradientUnits="userSpaceOnUse">
<stop stop-color="#1A1A1A" stop-opacity="0.1"/>
<stop offset="0.123" stop-color="#212121" stop-opacity="0.151"/>
<stop offset="0.308" stop-color="#353535" stop-opacity="0.227"/>
<stop offset="0.532" stop-color="#575757" stop-opacity="0.318"/>
<stop offset="0.783" stop-color="#858585" stop-opacity="0.421"/>
<stop offset="1" stop-color="#B3B3B3" stop-opacity="0.51"/>
</linearGradient>
<clipPath id="clip0_1_402">
<rect width="40.4781" height="11.9967" fill="white" transform="scale(4.00216 4.0011)"/>
</clipPath>
</defs>
</svg>
