<svg width="162" height="48" viewBox="0 0 162 48" fill="none" xmlns="http://www.w3.org/2000/svg">
<g clip-path="url(#clip0_1_408)">
<path d="M156 47.9916H6C2.64 47.9916 0 45.3526 0 41.9937V6.00632C0 2.6475 2.64 0.00842285 6 0.00842285H156C159.36 0.00842285 162 2.6475 162 6.00632V41.9937C162 45.3526 159.36 47.9916 156 47.9916Z" fill="#424551"/>
<path d="M156 0.968087C158.76 0.968087 161.04 3.24729 161.04 6.00632V41.9937C161.04 44.7528 158.76 47.032 156 47.032H6C3.24 47.032 0.96 44.7528 0.96 41.9937V6.00632C0.96 3.24729 3.24 0.968087 6 0.968087H156ZM156 0.00842285H6C2.64 0.00842285 0 2.76746 0 6.00632V41.9937C0 45.3526 2.64 47.9916 6 47.9916H156C159.36 47.9916 162 45.3526 162 41.9937V6.00632C162 2.76746 159.36 0.00842285 156 0.00842285Z" fill="#424551"/>
<path d="M56.8802 12.2441C56.8802 13.2038 56.6402 14.0435 56.0402 14.6433C55.3202 15.363 54.4802 15.7229 53.4002 15.7229C52.3202 15.7229 51.4802 15.363 50.7602 14.6433C50.0402 13.9235 49.6802 13.0838 49.6802 12.0042C49.6802 10.9246 50.0402 10.0849 50.7602 9.36514C51.4802 8.6454 52.3202 8.28552 53.4002 8.28552C53.8802 8.28552 54.3602 8.40548 54.8402 8.6454C55.3202 8.88531 55.6802 9.12523 55.9202 9.4851L55.3202 10.0849C54.8402 9.4851 54.2402 9.24519 53.4002 9.24519C52.6802 9.24519 51.9602 9.4851 51.4802 10.0849C50.8802 10.5647 50.6402 11.2845 50.6402 12.1242C50.6402 12.9639 50.8802 13.6836 51.4802 14.1635C52.0802 14.6433 52.6802 15.0032 53.4002 15.0032C54.2402 15.0032 54.8402 14.7633 55.4402 14.1635C55.8002 13.8036 56.0402 13.3238 56.0402 12.724H53.4002V11.7643H56.8802V12.2441ZM62.4002 9.24519H59.1602V11.5244H62.1602V12.3641H59.1602V14.6433H62.4002V15.603H58.2002V8.40548H62.4002V9.24519ZM66.3602 15.603H65.4002V9.24519H63.3602V8.40548H68.4002V9.24519H66.3602V15.603ZM71.8802 15.603V8.40548H72.8402V15.603H71.8802ZM76.9202 15.603H75.9602V9.24519H73.9202V8.40548H78.8402V9.24519H76.8002V15.603H76.9202ZM88.3202 14.6433C87.6002 15.363 86.7602 15.7229 85.6802 15.7229C84.6002 15.7229 83.7602 15.363 83.0402 14.6433C82.3202 13.9235 81.9602 13.0838 81.9602 12.0042C81.9602 10.9246 82.3202 10.0849 83.0402 9.36514C83.7602 8.6454 84.6002 8.28552 85.6802 8.28552C86.7602 8.28552 87.6002 8.6454 88.3202 9.36514C89.0402 10.0849 89.4002 10.9246 89.4002 12.0042C89.4002 13.0838 89.0402 13.9235 88.3202 14.6433ZM83.7602 14.0435C84.2402 14.5233 84.9602 14.8832 85.6802 14.8832C86.4002 14.8832 87.1202 14.6433 87.6002 14.0435C88.0802 13.5637 88.4402 12.8439 88.4402 12.0042C88.4402 11.1645 88.2002 10.4448 87.6002 9.96493C87.1202 9.4851 86.4002 9.12523 85.6802 9.12523C84.9602 9.12523 84.2402 9.36514 83.7602 9.96493C83.2802 10.4448 82.9202 11.1645 82.9202 12.0042C82.9202 12.8439 83.1602 13.5637 83.7602 14.0435ZM90.7202 15.603V8.40548H91.8002L95.2802 14.0435V8.40548H96.2402V15.603H95.2802L91.5602 9.72502V15.603H90.7202Z" fill="white"/>
<path d="M81.7198 26.1593C78.8398 26.1593 76.5598 28.3185 76.5598 31.3175C76.5598 34.1965 78.8398 36.4757 81.7198 36.4757C84.5998 36.4757 86.8798 34.3164 86.8798 31.3175C86.8798 28.1986 84.5998 26.1593 81.7198 26.1593ZM81.7198 34.3164C80.1598 34.3164 78.8398 32.9969 78.8398 31.1975C78.8398 29.3981 80.1598 28.0786 81.7198 28.0786C83.2798 28.0786 84.5998 29.2782 84.5998 31.1975C84.5998 32.9969 83.2798 34.3164 81.7198 34.3164ZM70.5598 26.1593C67.6798 26.1593 65.3998 28.3185 65.3998 31.3175C65.3998 34.1965 67.6798 36.4757 70.5598 36.4757C73.4398 36.4757 75.7198 34.3164 75.7198 31.3175C75.7198 28.1986 73.4398 26.1593 70.5598 26.1593ZM70.5598 34.3164C68.9998 34.3164 67.6798 32.9969 67.6798 31.1975C67.6798 29.3981 68.9998 28.0786 70.5598 28.0786C72.1198 28.0786 73.4398 29.2782 73.4398 31.1975C73.4398 32.9969 72.1198 34.3164 70.5598 34.3164ZM57.2398 27.7187V29.878H62.3998C62.2798 31.0775 61.7998 32.0372 61.1998 32.637C60.4798 33.3567 59.2798 34.1965 57.2398 34.1965C53.9998 34.1965 51.5998 31.6773 51.5998 28.4385C51.5998 25.1996 54.1198 22.6805 57.2398 22.6805C58.9198 22.6805 60.2398 23.4002 61.1998 24.2399L62.7598 22.6805C61.4398 21.4809 59.7598 20.5212 57.3598 20.5212C53.0398 20.5212 49.3198 24.12 49.3198 28.4385C49.3198 32.757 53.0398 36.3557 57.3598 36.3557C59.7598 36.3557 61.4398 35.636 62.8798 34.0765C64.3198 32.637 64.7998 30.5977 64.7998 29.0383C64.7998 28.5584 64.7998 28.0786 64.6798 27.7187H57.2398ZM111.72 29.3981C111.24 28.1986 110.04 26.1593 107.4 26.1593C104.76 26.1593 102.6 28.1986 102.6 31.3175C102.6 34.1965 104.76 36.4757 107.64 36.4757C109.92 36.4757 111.36 35.0362 111.84 34.1965L110.16 32.9969C109.56 33.8366 108.84 34.4364 107.64 34.4364C106.44 34.4364 105.72 33.9565 105.12 32.8769L111.96 29.9979L111.72 29.3981ZM104.76 31.0775C104.76 29.1582 106.32 28.0786 107.4 28.0786C108.24 28.0786 109.08 28.5584 109.32 29.1582L104.76 31.0775ZM99.1198 35.9958H101.4V21.0011H99.1198V35.9958ZM95.5198 27.2389C94.9198 26.6391 93.9598 26.0393 92.7598 26.0393C90.2398 26.0393 87.8398 28.3185 87.8398 31.1975C87.8398 34.0765 90.1198 36.2357 92.7598 36.2357C93.9598 36.2357 94.9198 35.636 95.3998 35.0362H95.5198V35.7559C95.5198 37.6752 94.4398 38.7549 92.7598 38.7549C91.4398 38.7549 90.4798 37.7952 90.2398 36.9555L88.3198 37.7952C88.9198 39.1147 90.3598 40.7941 92.8798 40.7941C95.5198 40.7941 97.6798 39.2347 97.6798 35.516V26.3992H95.5198V27.2389ZM92.8798 34.3164C91.3198 34.3164 89.9998 32.9969 89.9998 31.1975C89.9998 29.3981 91.3198 28.0786 92.8798 28.0786C94.4398 28.0786 95.6398 29.3981 95.6398 31.1975C95.6398 32.9969 94.4398 34.3164 92.8798 34.3164ZM122.16 21.0011H116.76V35.9958H119.04V30.3578H122.16C124.68 30.3578 127.08 28.5584 127.08 25.6794C127.08 22.8004 124.68 21.0011 122.16 21.0011ZM122.28 28.1986H119.04V23.0404H122.28C123.96 23.0404 124.92 24.4799 124.92 25.5595C124.8 26.879 123.84 28.1986 122.28 28.1986ZM136.08 26.0393C134.4 26.0393 132.72 26.7591 132.12 28.3185L134.16 29.1582C134.64 28.3185 135.36 28.0786 136.2 28.0786C137.4 28.0786 138.48 28.7983 138.6 29.9979V30.1179C138.24 29.878 137.28 29.5181 136.32 29.5181C134.16 29.5181 132 30.7177 132 32.8769C132 34.9162 133.8 36.2357 135.72 36.2357C137.28 36.2357 138 35.516 138.6 34.7962H138.72V35.9958H140.88V30.2378C140.64 27.5988 138.6 26.0393 136.08 26.0393ZM135.84 34.3164C135.12 34.3164 134.04 33.9565 134.04 32.9969C134.04 31.7973 135.36 31.4374 136.44 31.4374C137.4 31.4374 137.88 31.6773 138.48 31.9173C138.24 33.3567 137.04 34.3164 135.84 34.3164ZM148.44 26.3992L145.92 32.8769H145.8L143.16 26.3992H140.76L144.72 35.516L142.44 40.5542H144.72L150.84 26.3992H148.44ZM128.28 35.9958H130.56V21.0011H128.28V35.9958Z" fill="white"/>
<path d="M12.4801 9.00525C12.1201 9.36512 12.0001 9.96491 12.0001 10.6847V37.1954C12.0001 37.9151 12.2401 38.5149 12.6001 38.8748L12.7201 38.9948L27.6001 24.12V23.88L12.4801 9.00525Z" fill="url(#paint0_linear_1_408)"/>
<path d="M32.4003 29.1582L27.4803 24.24V23.8801L32.4003 18.9618L32.5203 19.0817L38.4003 22.4406C40.0803 23.4002 40.0803 24.9597 38.4003 25.9194L32.4003 29.1582Z" fill="url(#paint1_linear_1_408)"/>
<path d="M32.5201 29.0382L27.4801 24L12.4801 38.9948C13.0801 39.5946 13.9201 39.5946 15.0001 39.1147L32.5201 29.0382Z" fill="url(#paint2_linear_1_408)"/>
<path d="M32.5201 18.9618L15.0001 9.00529C13.9201 8.4055 13.0801 8.52546 12.4801 9.12525L27.4801 24L32.5201 18.9618Z" fill="url(#paint3_linear_1_408)"/>
<path opacity="0.2" d="M32.4001 28.9183L15.0001 38.7549C14.0401 39.3547 13.2001 39.2347 12.6001 38.7549L12.4801 38.8748L12.6001 38.9948C13.2001 39.4746 14.0401 39.5946 15.0001 38.9948L32.4001 28.9183Z" fill="#424551"/>
<path opacity="0.2" d="M12.4801 38.7548C12.1201 38.395 12.0001 37.7952 12.0001 37.0754V37.1954C12.0001 37.9151 12.2401 38.5149 12.6001 38.8748V38.7548H12.4801ZM38.4001 25.5595L32.4001 28.9183L32.5201 29.0382L38.4001 25.6794C39.2401 25.1996 39.6001 24.5998 39.6001 24C39.6001 24.5998 39.1201 25.0796 38.4001 25.5595Z" fill="#424551"/>
<path opacity="0.2" d="M15.0001 9.12521L38.4001 22.4406C39.1201 22.9204 39.6001 23.4002 39.6001 24C39.6001 23.4002 39.2401 22.8004 38.4001 22.3206L15.0001 9.00525C13.3201 8.04559 12.0001 8.76534 12.0001 10.6847V10.8046C12.0001 9.00525 13.3201 8.16555 15.0001 9.12521Z" fill="white"/>
</g>
<defs>
<linearGradient id="paint0_linear_1_408" x1="26.1601" y1="10.4567" x2="6.02754" y2="30.5951" gradientUnits="userSpaceOnUse">
<stop stop-color="#00A0FF"/>
<stop offset="0.007" stop-color="#00A1FF"/>
<stop offset="0.26" stop-color="#00BEFF"/>
<stop offset="0.512" stop-color="#00D2FF"/>
<stop offset="0.76" stop-color="#00DFFF"/>
<stop offset="1" stop-color="#00E3FF"/>
</linearGradient>
<linearGradient id="paint1_linear_1_408" x1="40.6011" y1="24.0012" x2="11.5646" y2="24.0012" gradientUnits="userSpaceOnUse">
<stop stop-color="#FFE000"/>
<stop offset="0.409" stop-color="#FFBD00"/>
<stop offset="0.775" stop-color="#FFA500"/>
<stop offset="1" stop-color="#FF9C00"/>
</linearGradient>
<linearGradient id="paint2_linear_1_408" x1="29.7925" y1="26.7542" x2="2.49242" y2="54.0639" gradientUnits="userSpaceOnUse">
<stop stop-color="#FF3A44"/>
<stop offset="1" stop-color="#C31162"/>
</linearGradient>
<linearGradient id="paint3_linear_1_408" x1="8.7565" y1="0.21957" x2="20.9478" y2="12.4152" gradientUnits="userSpaceOnUse">
<stop stop-color="#32A071"/>
<stop offset="0.069" stop-color="#2DA771"/>
<stop offset="0.476" stop-color="#15CF74"/>
<stop offset="0.801" stop-color="#06E775"/>
<stop offset="1" stop-color="#00F076"/>
</linearGradient>
<clipPath id="clip0_1_408">
<rect width="162" height="48" fill="white"/>
</clipPath>
</defs>
</svg>
